<svg xmlns="http://www.w3.org/2000/svg" version="1.1" viewBox="0.00 0.00 646.00 650.00">
<g stroke-width="2.00" fill="none" stroke-linecap="butt">
<path stroke="#8ca3a9" vector-effect="non-scaling-stroke" d="
  M 262.93 86.29
  Q 252.57 89.24 239.97 93.66
  Q 219.30 100.91 200.66 113.12
  A 0.80 0.79 -44.2 0 1 199.79 113.11
  Q 196.11 110.66 192.61 107.85
  Q 172.70 91.86 154.98 76.78
  Q 150.34 72.84 147.38 72.09
  Q 142.44 70.83 137.20 72.42
  Q 134.33 73.29 127.35 80.30
  C 110.95 96.79 93.64 114.26 76.43 130.91
  Q 73.42 133.82 71.85 138.68
  C 69.54 145.80 73.48 151.56 78.32 156.71
  Q 96.48 176.03 113.60 195.60
  Q 114.12 196.19 113.72 196.87
  Q 96.17 226.87 87.29 260.42
  A 1.17 1.16 -87.6 0 1 86.37 261.27
  Q 57.76 266.23 28.62 271.04
  C 21.11 272.28 15.82 277.39 15.89 285.33
  Q 16.21 324.05 16.08 357.17
  Q 16.05 364.52 17.72 367.86
  Q 20.73 373.85 28.18 375.14
  Q 48.12 378.57 74.34 381.98
  C 78.07 382.46 81.83 383.36 85.56 383.92
  A 0.90 0.90 0.0 0 1 86.29 384.54
  Q 89.58 395.30 93.15 405.52
  Q 101.24 428.70 113.23 450.17
  A 1.15 1.14 50.1 0 1 113.12 451.45
  Q 96.74 471.58 79.05 490.87
  Q 75.45 494.79 72.90 499.30
  C 68.62 506.87 71.93 514.14 77.54 519.70
  Q 104.63 546.54 132.29 574.42
  Q 138.65 580.83 146.93 578.84
  Q 150.96 577.87 156.32 573.41
  C 170.40 561.66 184.29 549.82 199.64 538.82
  Q 200.10 538.49 200.58 538.80
  Q 209.05 544.32 216.61 547.90
  Q 238.61 558.33 262.46 565.13
  A 0.85 0.84 -86.6 0 1 263.04 565.79
  Q 267.63 594.93 270.42 621.70
  C 271.11 628.32 272.50 633.84 278.54 636.92
  Q 281.33 638.35 288.54 638.31
  Q 322.46 638.09 357.62 638.31
  C 363.68 638.34 368.92 636.72 372.11 631.48
  Q 373.80 628.70 374.44 622.89
  C 376.33 605.85 378.95 585.45 381.92 565.73
  Q 381.99 565.26 382.45 565.13
  Q 407.21 557.66 429.55 547.05
  C 434.69 544.61 439.47 541.70 444.48 539.09
  A 1.65 1.62 -41.4 0 1 446.15 539.18
  Q 450.18 541.93 454.26 545.16
  Q 475.45 561.94 493.15 576.37
  C 498.15 580.44 506.20 580.05 511.34 575.88
  Q 514.08 573.67 516.20 571.45
  C 532.46 554.40 549.15 537.68 566.08 520.55
  Q 572.27 514.29 573.48 510.61
  C 575.92 503.18 572.13 497.57 567.24 492.18
  Q 552.25 475.64 537.40 459.07
  Q 534.54 455.88 531.84 452.51
  A 2.32 2.31 40.3 0 1 531.62 449.93
  Q 539.29 436.10 544.76 422.88
  Q 553.17 402.55 558.51 385.19
  Q 558.66 384.68 559.18 384.53
  Q 563.21 383.36 567.00 382.81
  Q 589.05 379.57 612.40 375.77
  C 618.87 374.72 624.81 373.92 627.98 367.17
  Q 629.36 364.21 629.33 358.44
  Q 629.10 320.48 629.33 289.22
  Q 629.38 282.43 628.06 279.42
  C 624.03 270.21 613.58 271.02 605.06 269.53
  Q 583.37 265.73 559.40 261.51
  A 2.11 2.11 0.0 0 1 557.72 259.94
  C 555.20 249.64 551.38 240.01 547.61 230.08
  C 543.16 218.40 537.72 207.58 531.77 196.47
  A 1.20 1.20 0.0 0 1 531.93 195.09
  Q 543.08 182.63 554.25 169.95
  C 558.17 165.49 566.23 156.90 571.65 150.26
  C 576.11 144.81 574.04 137.81 570.00 132.74
  Q 569.57 132.20 564.55 127.19
  Q 537.12 99.80 512.98 75.75
  Q 510.27 73.05 506.72 72.19
  Q 497.60 70.00 490.50 76.39
  Q 469.77 95.03 449.35 110.53
  Q 447.76 111.74 445.96 112.77
  Q 445.51 113.03 445.03 112.86
  Q 443.70 112.39 442.50 111.76
  Q 435.52 108.10 428.86 104.64
  Q 406.78 93.14 383.40 86.55
  A 1.70 1.69 -87.2 0 1 382.21 85.23
  Q 380.83 77.50 379.85 70.08
  Q 377.18 50.01 374.27 29.39
  C 372.89 19.59 368.31 14.05 357.82 14.06
  Q 319.88 14.11 287.59 13.97
  C 274.87 13.92 271.63 20.58 270.43 31.93
  Q 267.96 55.18 263.53 85.60
  Q 263.45 86.14 262.93 86.29"
/>
<path stroke="#8ca3a9" vector-effect="non-scaling-stroke" d="
  M 399.91 162.39
  C 369.97 147.69 336.39 140.56 303.75 144.70
  Q 252.96 151.14 213.42 182.31
  Q 195.89 196.12 182.51 212.77
  Q 145.57 258.72 142.80 317.74
  Q 141.46 346.14 149.55 374.21
  Q 156.41 398.02 167.07 416.57
  Q 181.90 442.38 205.08 463.46
  C 227.74 484.08 257.23 499.67 288.19 505.70
  Q 316.76 511.26 343.71 507.62
  Q 401.19 499.87 443.31 460.29
  C 456.26 448.13 467.55 435.06 476.44 419.94
  Q 487.37 401.36 494.47 379.25
  Q 507.70 338.01 500.08 295.05
  C 493.00 255.08 472.69 217.86 442.01 190.88
  Q 421.91 173.19 399.91 162.39"
/>
<path stroke="#8ca3a9" vector-effect="non-scaling-stroke" d="
  M 282.93 469.58
  C 298.36 476.11 313.44 478.14 329.70 477.10
  C 360.58 475.14 389.59 458.69 403.90 430.61
  Q 408.62 421.35 410.96 413.56
  Q 416.69 394.46 419.51 370.14
  Q 419.98 366.10 419.98 361.93
  Q 419.89 308.63 420.12 251.42
  Q 420.16 240.92 419.21 235.32
  C 414.15 205.80 384.69 181.99 354.93 181.52
  Q 330.55 181.13 294.43 181.32
  C 278.38 181.40 261.29 186.80 249.13 197.61
  C 234.45 210.65 225.49 227.51 225.49 246.87
  Q 225.49 305.96 225.80 365.08
  C 225.82 369.05 226.22 373.52 226.80 377.00
  Q 228.78 388.88 231.07 401.22
  C 236.52 430.46 254.64 457.63 282.93 469.58"
/>
<path stroke="#8ca3a9" vector-effect="non-scaling-stroke" d="
  M 212.5671 283.9260
  A 8.61 8.61 0.0 0 0 203.9721 275.3009
  L 202.9521 275.2992
  A 8.61 8.61 0.0 0 0 194.3271 283.8941
  L 194.2329 337.8540
  A 8.61 8.61 0.0 0 0 202.8279 346.4791
  L 203.8479 346.4808
  A 8.61 8.61 0.0 0 0 212.4729 337.8859
  L 212.5671 283.9260"
/>
<path stroke="#8ca3a9" vector-effect="non-scaling-stroke" d="
  M 451.14 283.80
  A 8.66 8.66 0.0 0 0 442.48 275.14
  L 441.58 275.14
  A 8.66 8.66 0.0 0 0 432.92 283.80
  L 432.92 337.72
  A 8.66 8.66 0.0 0 0 441.58 346.38
  L 442.48 346.38
  A 8.66 8.66 0.0 0 0 451.14 337.72
  L 451.14 283.80"
/>
<path stroke="#8ca3a9" vector-effect="non-scaling-stroke" d="
  M 389.99 281.23
  A 12.81 12.81 0.0 0 0 377.18 268.42
  L 268.20 268.42
  A 12.81 12.81 0.0 0 0 255.39 281.23
  L 255.39 322.39
  A 12.81 12.81 0.0 0 0 268.20 335.20
  L 377.18 335.20
  A 12.81 12.81 0.0 0 0 389.99 322.39
  L 389.99 281.23"
/>
</g>
<path fill="#ffffff" d="
  M 0.00 0.00
  L 646.00 0.00
  L 646.00 650.00
  L 0.00 650.00
  L 0.00 0.00
  Z
  M 262.93 86.29
  Q 252.57 89.24 239.97 93.66
  Q 219.30 100.91 200.66 113.12
  A 0.80 0.79 -44.2 0 1 199.79 113.11
  Q 196.11 110.66 192.61 107.85
  Q 172.70 91.86 154.98 76.78
  Q 150.34 72.84 147.38 72.09
  Q 142.44 70.83 137.20 72.42
  Q 134.33 73.29 127.35 80.30
  C 110.95 96.79 93.64 114.26 76.43 130.91
  Q 73.42 133.82 71.85 138.68
  C 69.54 145.80 73.48 151.56 78.32 156.71
  Q 96.48 176.03 113.60 195.60
  Q 114.12 196.19 113.72 196.87
  Q 96.17 226.87 87.29 260.42
  A 1.17 1.16 -87.6 0 1 86.37 261.27
  Q 57.76 266.23 28.62 271.04
  C 21.11 272.28 15.82 277.39 15.89 285.33
  Q 16.21 324.05 16.08 357.17
  Q 16.05 364.52 17.72 367.86
  Q 20.73 373.85 28.18 375.14
  Q 48.12 378.57 74.34 381.98
  C 78.07 382.46 81.83 383.36 85.56 383.92
  A 0.90 0.90 0.0 0 1 86.29 384.54
  Q 89.58 395.30 93.15 405.52
  Q 101.24 428.70 113.23 450.17
  A 1.15 1.14 50.1 0 1 113.12 451.45
  Q 96.74 471.58 79.05 490.87
  Q 75.45 494.79 72.90 499.30
  C 68.62 506.87 71.93 514.14 77.54 519.70
  Q 104.63 546.54 132.29 574.42
  Q 138.65 580.83 146.93 578.84
  Q 150.96 577.87 156.32 573.41
  C 170.40 561.66 184.29 549.82 199.64 538.82
  Q 200.10 538.49 200.58 538.80
  Q 209.05 544.32 216.61 547.90
  Q 238.61 558.33 262.46 565.13
  A 0.85 0.84 -86.6 0 1 263.04 565.79
  Q 267.63 594.93 270.42 621.70
  C 271.11 628.32 272.50 633.84 278.54 636.92
  Q 281.33 638.35 288.54 638.31
  Q 322.46 638.09 357.62 638.31
  C 363.68 638.34 368.92 636.72 372.11 631.48
  Q 373.80 628.70 374.44 622.89
  C 376.33 605.85 378.95 585.45 381.92 565.73
  Q 381.99 565.26 382.45 565.13
  Q 407.21 557.66 429.55 547.05
  C 434.69 544.61 439.47 541.70 444.48 539.09
  A 1.65 1.62 -41.4 0 1 446.15 539.18
  Q 450.18 541.93 454.26 545.16
  Q 475.45 561.94 493.15 576.37
  C 498.15 580.44 506.20 580.05 511.34 575.88
  Q 514.08 573.67 516.20 571.45
  C 532.46 554.40 549.15 537.68 566.08 520.55
  Q 572.27 514.29 573.48 510.61
  C 575.92 503.18 572.13 497.57 567.24 492.18
  Q 552.25 475.64 537.40 459.07
  Q 534.54 455.88 531.84 452.51
  A 2.32 2.31 40.3 0 1 531.62 449.93
  Q 539.29 436.10 544.76 422.88
  Q 553.17 402.55 558.51 385.19
  Q 558.66 384.68 559.18 384.53
  Q 563.21 383.36 567.00 382.81
  Q 589.05 379.57 612.40 375.77
  C 618.87 374.72 624.81 373.92 627.98 367.17
  Q 629.36 364.21 629.33 358.44
  Q 629.10 320.48 629.33 289.22
  Q 629.38 282.43 628.06 279.42
  C 624.03 270.21 613.58 271.02 605.06 269.53
  Q 583.37 265.73 559.40 261.51
  A 2.11 2.11 0.0 0 1 557.72 259.94
  C 555.20 249.64 551.38 240.01 547.61 230.08
  C 543.16 218.40 537.72 207.58 531.77 196.47
  A 1.20 1.20 0.0 0 1 531.93 195.09
  Q 543.08 182.63 554.25 169.95
  C 558.17 165.49 566.23 156.90 571.65 150.26
  C 576.11 144.81 574.04 137.81 570.00 132.74
  Q 569.57 132.20 564.55 127.19
  Q 537.12 99.80 512.98 75.75
  Q 510.27 73.05 506.72 72.19
  Q 497.60 70.00 490.50 76.39
  Q 469.77 95.03 449.35 110.53
  Q 447.76 111.74 445.96 112.77
  Q 445.51 113.03 445.03 112.86
  Q 443.70 112.39 442.50 111.76
  Q 435.52 108.10 428.86 104.64
  Q 406.78 93.14 383.40 86.55
  A 1.70 1.69 -87.2 0 1 382.21 85.23
  Q 380.83 77.50 379.85 70.08
  Q 377.18 50.01 374.27 29.39
  C 372.89 19.59 368.31 14.05 357.82 14.06
  Q 319.88 14.11 287.59 13.97
  C 274.87 13.92 271.63 20.58 270.43 31.93
  Q 267.96 55.18 263.53 85.60
  Q 263.45 86.14 262.93 86.29
  Z"
/>
<path fill="#194752" d="
  M 263.53 85.60
  Q 267.96 55.18 270.43 31.93
  C 271.63 20.58 274.87 13.92 287.59 13.97
  Q 319.88 14.11 357.82 14.06
  C 368.31 14.05 372.89 19.59 374.27 29.39
  Q 377.18 50.01 379.85 70.08
  Q 380.83 77.50 382.21 85.23
  A 1.70 1.69 -87.2 0 0 383.40 86.55
  Q 406.78 93.14 428.86 104.64
  Q 435.52 108.10 442.50 111.76
  Q 443.70 112.39 445.03 112.86
  Q 445.51 113.03 445.96 112.77
  Q 447.76 111.74 449.35 110.53
  Q 469.77 95.03 490.50 76.39
  Q 497.60 70.00 506.72 72.19
  Q 510.27 73.05 512.98 75.75
  Q 537.12 99.80 564.55 127.19
  Q 569.57 132.20 570.00 132.74
  C 574.04 137.81 576.11 144.81 571.65 150.26
  C 566.23 156.90 558.17 165.49 554.25 169.95
  Q 543.08 182.63 531.93 195.09
  A 1.20 1.20 0.0 0 0 531.77 196.47
  C 537.72 207.58 543.16 218.40 547.61 230.08
  C 551.38 240.01 555.20 249.64 557.72 259.94
  A 2.11 2.11 0.0 0 0 559.40 261.51
  Q 583.37 265.73 605.06 269.53
  C 613.58 271.02 624.03 270.21 628.06 279.42
  Q 629.38 282.43 629.33 289.22
  Q 629.10 320.48 629.33 358.44
  Q 629.36 364.21 627.98 367.17
  C 624.81 373.92 618.87 374.72 612.40 375.77
  Q 589.05 379.57 567.00 382.81
  Q 563.21 383.36 559.18 384.53
  Q 558.66 384.68 558.51 385.19
  Q 553.17 402.55 544.76 422.88
  Q 539.29 436.10 531.62 449.93
  A 2.32 2.31 40.3 0 0 531.84 452.51
  Q 534.54 455.88 537.40 459.07
  Q 552.25 475.64 567.24 492.18
  C 572.13 497.57 575.92 503.18 573.48 510.61
  Q 572.27 514.29 566.08 520.55
  C 549.15 537.68 532.46 554.40 516.20 571.45
  Q 514.08 573.67 511.34 575.88
  C 506.20 580.05 498.15 580.44 493.15 576.37
  Q 475.45 561.94 454.26 545.16
  Q 450.18 541.93 446.15 539.18
  A 1.65 1.62 -41.4 0 0 444.48 539.09
  C 439.47 541.70 434.69 544.61 429.55 547.05
  Q 407.21 557.66 382.45 565.13
  Q 381.99 565.26 381.92 565.73
  C 378.95 585.45 376.33 605.85 374.44 622.89
  Q 373.80 628.70 372.11 631.48
  C 368.92 636.72 363.68 638.34 357.62 638.31
  Q 322.46 638.09 288.54 638.31
  Q 281.33 638.35 278.54 636.92
  C 272.50 633.84 271.11 628.32 270.42 621.70
  Q 267.63 594.93 263.04 565.79
  A 0.85 0.84 -86.6 0 0 262.46 565.13
  Q 238.61 558.33 216.61 547.90
  Q 209.05 544.32 200.58 538.80
  Q 200.10 538.49 199.64 538.82
  C 184.29 549.82 170.40 561.66 156.32 573.41
  Q 150.96 577.87 146.93 578.84
  Q 138.65 580.83 132.29 574.42
  Q 104.63 546.54 77.54 519.70
  C 71.93 514.14 68.62 506.87 72.90 499.30
  Q 75.45 494.79 79.05 490.87
  Q 96.74 471.58 113.12 451.45
  A 1.15 1.14 50.1 0 0 113.23 450.17
  Q 101.24 428.70 93.15 405.52
  Q 89.58 395.30 86.29 384.54
  A 0.90 0.90 0.0 0 0 85.56 383.92
  C 81.83 383.36 78.07 382.46 74.34 381.98
  Q 48.12 378.57 28.18 375.14
  Q 20.73 373.85 17.72 367.86
  Q 16.05 364.52 16.08 357.17
  Q 16.21 324.05 15.89 285.33
  C 15.82 277.39 21.11 272.28 28.62 271.04
  Q 57.76 266.23 86.37 261.27
  A 1.17 1.16 -87.6 0 0 87.29 260.42
  Q 96.17 226.87 113.72 196.87
  Q 114.12 196.19 113.60 195.60
  Q 96.48 176.03 78.32 156.71
  C 73.48 151.56 69.54 145.80 71.85 138.68
  Q 73.42 133.82 76.43 130.91
  C 93.64 114.26 110.95 96.79 127.35 80.30
  Q 134.33 73.29 137.20 72.42
  Q 142.44 70.83 147.38 72.09
  Q 150.34 72.84 154.98 76.78
  Q 172.70 91.86 192.61 107.85
  Q 196.11 110.66 199.79 113.11
  A 0.80 0.79 -44.2 0 0 200.66 113.12
  Q 219.30 100.91 239.97 93.66
  Q 252.57 89.24 262.93 86.29
  Q 263.45 86.14 263.53 85.60
  Z
  M 399.91 162.39
  C 369.97 147.69 336.39 140.56 303.75 144.70
  Q 252.96 151.14 213.42 182.31
  Q 195.89 196.12 182.51 212.77
  Q 145.57 258.72 142.80 317.74
  Q 141.46 346.14 149.55 374.21
  Q 156.41 398.02 167.07 416.57
  Q 181.90 442.38 205.08 463.46
  C 227.74 484.08 257.23 499.67 288.19 505.70
  Q 316.76 511.26 343.71 507.62
  Q 401.19 499.87 443.31 460.29
  C 456.26 448.13 467.55 435.06 476.44 419.94
  Q 487.37 401.36 494.47 379.25
  Q 507.70 338.01 500.08 295.05
  C 493.00 255.08 472.69 217.86 442.01 190.88
  Q 421.91 173.19 399.91 162.39
  Z"
/>
<path fill="#ffffff" d="
  M 399.91 162.39
  Q 421.91 173.19 442.01 190.88
  C 472.69 217.86 493.00 255.08 500.08 295.05
  Q 507.70 338.01 494.47 379.25
  Q 487.37 401.36 476.44 419.94
  C 467.55 435.06 456.26 448.13 443.31 460.29
  Q 401.19 499.87 343.71 507.62
  Q 316.76 511.26 288.19 505.70
  C 257.23 499.67 227.74 484.08 205.08 463.46
  Q 181.90 442.38 167.07 416.57
  Q 156.41 398.02 149.55 374.21
  Q 141.46 346.14 142.80 317.74
  Q 145.57 258.72 182.51 212.77
  Q 195.89 196.12 213.42 182.31
  Q 252.96 151.14 303.75 144.70
  C 336.39 140.56 369.97 147.69 399.91 162.39
  Z
  M 282.93 469.58
  C 298.36 476.11 313.44 478.14 329.70 477.10
  C 360.58 475.14 389.59 458.69 403.90 430.61
  Q 408.62 421.35 410.96 413.56
  Q 416.69 394.46 419.51 370.14
  Q 419.98 366.10 419.98 361.93
  Q 419.89 308.63 420.12 251.42
  Q 420.16 240.92 419.21 235.32
  C 414.15 205.80 384.69 181.99 354.93 181.52
  Q 330.55 181.13 294.43 181.32
  C 278.38 181.40 261.29 186.80 249.13 197.61
  C 234.45 210.65 225.49 227.51 225.49 246.87
  Q 225.49 305.96 225.80 365.08
  C 225.82 369.05 226.22 373.52 226.80 377.00
  Q 228.78 388.88 231.07 401.22
  C 236.52 430.46 254.64 457.63 282.93 469.58
  Z
  M 212.5671 283.9260
  A 8.61 8.61 0.0 0 0 203.9721 275.3009
  L 202.9521 275.2992
  A 8.61 8.61 0.0 0 0 194.3271 283.8941
  L 194.2329 337.8540
  A 8.61 8.61 0.0 0 0 202.8279 346.4791
  L 203.8479 346.4808
  A 8.61 8.61 0.0 0 0 212.4729 337.8859
  L 212.5671 283.9260
  Z
  M 451.14 283.80
  A 8.66 8.66 0.0 0 0 442.48 275.14
  L 441.58 275.14
  A 8.66 8.66 0.0 0 0 432.92 283.80
  L 432.92 337.72
  A 8.66 8.66 0.0 0 0 441.58 346.38
  L 442.48 346.38
  A 8.66 8.66 0.0 0 0 451.14 337.72
  L 451.14 283.80
  Z"
/>
<path fill="#194752" d="
  M 282.93 469.58
  C 254.64 457.63 236.52 430.46 231.07 401.22
  Q 228.78 388.88 226.80 377.00
  C 226.22 373.52 225.82 369.05 225.80 365.08
  Q 225.49 305.96 225.49 246.87
  C 225.49 227.51 234.45 210.65 249.13 197.61
  C 261.29 186.80 278.38 181.40 294.43 181.32
  Q 330.55 181.13 354.93 181.52
  C 384.69 181.99 414.15 205.80 419.21 235.32
  Q 420.16 240.92 420.12 251.42
  Q 419.89 308.63 419.98 361.93
  Q 419.98 366.10 419.51 370.14
  Q 416.69 394.46 410.96 413.56
  Q 408.62 421.35 403.90 430.61
  C 389.59 458.69 360.58 475.14 329.70 477.10
  C 313.44 478.14 298.36 476.11 282.93 469.58
  Z
  M 389.99 281.23
  A 12.81 12.81 0.0 0 0 377.18 268.42
  L 268.20 268.42
  A 12.81 12.81 0.0 0 0 255.39 281.23
  L 255.39 322.39
  A 12.81 12.81 0.0 0 0 268.20 335.20
  L 377.18 335.20
  A 12.81 12.81 0.0 0 0 389.99 322.39
  L 389.99 281.23
  Z"
/>
<rect fill="#ffffff" x="255.39" y="268.42" width="134.60" height="66.78" rx="12.81"/>
<rect fill="#194752" x="-9.12" y="-35.59" transform="translate(203.40,310.89) rotate(0.1)" width="18.24" height="71.18" rx="8.61"/>
<rect fill="#194752" x="432.92" y="275.14" width="18.22" height="71.24" rx="8.66"/>
</svg>
